<mxfile host="65bd71144e">
    <diagram id="B-lVAMX0ywGX5zVq6d2T" name="Page-1">
        <mxGraphModel dx="1040" dy="754" grid="1" gridSize="10" guides="1" tooltips="1" connect="1" arrows="1" fold="1" page="1" pageScale="1" pageWidth="850" pageHeight="1100" math="0" shadow="0">
            <root>
                <mxCell id="0"/>
                <mxCell id="1" parent="0"/>
                <mxCell id="16" value="" style="edgeStyle=none;html=1;entryX=0.5;entryY=0;entryDx=0;entryDy=0;" edge="1" parent="1" source="2" target="5">
                    <mxGeometry relative="1" as="geometry">
                        <Array as="points"/>
                    </mxGeometry>
                </mxCell>
                <mxCell id="2" value="&lt;u&gt;TopStake&lt;/u&gt;&lt;p style=&quot;line-height: 2.6&quot;&gt;&lt;/p&gt;&lt;ul&gt;&lt;li style=&quot;text-align: left ; padding: 3px 0px&quot;&gt;Add Stake&lt;/li&gt;&lt;li style=&quot;text-align: left ; padding: 3px 0px&quot;&gt;Remove Stake&lt;/li&gt;&lt;li style=&quot;text-align: left ; padding: 3px 0px&quot;&gt;Reward Stakers&lt;/li&gt;&lt;/ul&gt;" style="whiteSpace=wrap;html=1;aspect=fixed;" vertex="1" parent="1">
                    <mxGeometry x="360" y="280" width="160" height="160" as="geometry"/>
                </mxCell>
                <mxCell id="6" value="" style="edgeStyle=none;html=1;" edge="1" parent="1" source="3" target="4">
                    <mxGeometry relative="1" as="geometry"/>
                </mxCell>
                <mxCell id="3" value="&lt;u&gt;TopDAO&lt;/u&gt;&lt;p style=&quot;line-height: 2.6&quot;&gt;&lt;/p&gt;&lt;ul&gt;&lt;li style=&quot;text-align: left ; padding: 3px 0px&quot;&gt;Set TopShelf Values&lt;/li&gt;&lt;li style=&quot;text-align: left ; padding: 3px 0px&quot;&gt;Token Treasury&lt;/li&gt;&lt;li style=&quot;text-align: left ; padding: 3px 0px&quot;&gt;Grant Tokens&lt;/li&gt;&lt;li style=&quot;text-align: left ; padding: 3px 0px&quot;&gt;Withdraw Top ETH&lt;/li&gt;&lt;/ul&gt;" style="whiteSpace=wrap;html=1;aspect=fixed;" vertex="1" parent="1">
                    <mxGeometry x="360" y="40" width="160" height="160" as="geometry"/>
                </mxCell>
                <mxCell id="12" value="" style="edgeStyle=none;html=1;exitX=0.5;exitY=1;exitDx=0;exitDy=0;entryX=0;entryY=0.5;entryDx=0;entryDy=0;" edge="1" parent="1" source="4" target="2">
                    <mxGeometry relative="1" as="geometry"/>
                </mxCell>
                <mxCell id="14" value="" style="edgeStyle=none;html=1;exitX=0.5;exitY=1;exitDx=0;exitDy=0;entryX=0;entryY=0.5;entryDx=0;entryDy=0;" edge="1" parent="1" source="4" target="5">
                    <mxGeometry relative="1" as="geometry"/>
                </mxCell>
                <mxCell id="4" value="&lt;font style=&quot;font-size: 11px&quot;&gt;&lt;u&gt;TopShelf&lt;/u&gt;&lt;/font&gt;&lt;p style=&quot;line-height: 2.6 ; font-size: 11px&quot;&gt;&lt;/p&gt;&lt;ul style=&quot;font-size: 11px&quot;&gt;&lt;li style=&quot;text-align: left&quot;&gt;&lt;font style=&quot;font-size: 11px&quot;&gt;List&lt;/font&gt;&lt;/li&gt;&lt;li style=&quot;text-align: left&quot;&gt;&lt;font style=&quot;font-size: 11px&quot;&gt;Buy&lt;/font&gt;&lt;/li&gt;&lt;li style=&quot;text-align: left&quot;&gt;&lt;font style=&quot;font-size: 11px&quot;&gt;Foreclose&lt;/font&gt;&lt;/li&gt;&lt;li style=&quot;text-align: left&quot;&gt;&lt;font style=&quot;font-size: 11px&quot;&gt;Renew&lt;/font&gt;&lt;/li&gt;&lt;/ul&gt;&lt;p&gt;&lt;/p&gt;" style="whiteSpace=wrap;html=1;aspect=fixed;" vertex="1" parent="1">
                    <mxGeometry x="80" y="40" width="160" height="160" as="geometry"/>
                </mxCell>
                <mxCell id="5" value="&lt;u style=&quot;line-height: 4.1&quot;&gt;TopToken&lt;/u&gt;&lt;p style=&quot;line-height: 2.6&quot;&gt;&lt;/p&gt;&lt;ul&gt;&lt;li style=&quot;text-align: left ; padding: 3px 0px&quot;&gt;Mint&lt;/li&gt;&lt;li style=&quot;text-align: left ; padding: 3px 0px&quot;&gt;Burn&lt;/li&gt;&lt;li style=&quot;text-align: left ; padding: 3px 0px&quot;&gt;Transfer&lt;/li&gt;&lt;li style=&quot;text-align: left ; padding: 3px 0px&quot;&gt;Approve&lt;/li&gt;&lt;/ul&gt;" style="whiteSpace=wrap;html=1;aspect=fixed;" vertex="1" parent="1">
                    <mxGeometry x="360" y="520" width="160" height="160" as="geometry"/>
                </mxCell>
            </root>
        </mxGraphModel>
    </diagram>
</mxfile>